<svg width="854" height="480" viewBox="0 0 854 480" fill="none" xmlns="http://www.w3.org/2000/svg">
  <defs>
    <!-- Rounded clipping path for the entire banner -->
    <clipPath id="bannerClip">
      <rect width="854" height="480" rx="12" />
    </clipPath>
    <!-- Clipping paths for diagonal glare sweeps on cards (using pixelated boundaries) -->
    <clipPath id="leftCardClip">
      <path d="M 30 26 H 327 H 330 V 29 H 333 V 32 H 336 V 35 V 149 V 152 H 333 V 155 H 330 V 158 H 30 H 30 H 27 V 155 H 24 V 152 H 21 V 149 V 35 V 32 H 24 V 29 H 27 V 26 H 30 Z" />
    </clipPath>
    <clipPath id="rightCardClip">
      <path d="M 507 71 H 824 H 827 V 74 H 830 V 77 H 833 V 80 V 194 V 197 H 830 V 200 H 827 V 203 H 507 H 507 H 504 V 200 H 501 V 197 H 498 V 194 V 80 V 77 H 501 V 74 H 504 V 71 H 507 Z" />
    </clipPath>
    <!-- Soft Vertical Gradient Overlay for stats readability -->
    <linearGradient id="overlayGrad" x1="0" y1="0" x2="0" y2="1">
      <stop offset="0%" stop-color="#0d1117" stop-opacity="0.8" />
      <stop offset="55%" stop-color="#0d1117" stop-opacity="0.4" />
      <stop offset="100%" stop-color="#0d1117" stop-opacity="0.0" />
    </linearGradient>
    <!-- Liquid Glass Card Background Gradient (Frosted & Translucent) -->
    <linearGradient id="liquidGlassBg" x1="0" y1="0" x2="100%" y2="100%">
      <stop offset="0%" stop-color="#ffffff" stop-opacity="0.08" />
      <stop offset="30%" stop-color="#ffffff" stop-opacity="0.02" />
      <stop offset="100%" stop-color="#000000" stop-opacity="0.2" />
    </linearGradient>
    <!-- Stats Card Pixel Highlight: sky blue top-left, dark pixels bottom-right -->
    <linearGradient id="pixelHighlightStats" x1="0" y1="0" x2="1" y2="1">
      <!-- Sky Blue Block 1 (top-left corner) -->
      <stop offset="0%" stop-color="#5fa0fe" />
      <stop offset="5%" stop-color="#5fa0fe" />
      <!-- Gap -->
      <stop offset="5%" stop-color="#5fa0fe" stop-opacity="0" />
      <stop offset="7%" stop-color="#5fa0fe" stop-opacity="0" />
      <!-- Sky Blue Block 2 -->
      <stop offset="7%" stop-color="#5fa0fe" />
      <stop offset="12%" stop-color="#5fa0fe" />
      <!-- Gap -->
      <stop offset="12%" stop-color="#5fa0fe" stop-opacity="0" />
      <stop offset="14%" stop-color="#5fa0fe" stop-opacity="0" />
      <!-- Pink accent pixel -->
      <stop offset="14%" stop-color="#ff34e7" />
      <stop offset="18%" stop-color="#ff34e7" />

      <!-- Long transparent gap (middle of border) -->
      <stop offset="18%" stop-color="#000000" stop-opacity="0" />
      <stop offset="70%" stop-color="#000000" stop-opacity="0" />

      <!-- Dark blue block 1 (bottom-right area) -->
      <stop offset="70%" stop-color="#1e3a5f" />
      <stop offset="76%" stop-color="#1e3a5f" />
      <!-- Gap -->
      <stop offset="76%" stop-color="#1e3a5f" stop-opacity="0" />
      <stop offset="78%" stop-color="#1e3a5f" stop-opacity="0" />
      <!-- Dark navy block 2 -->
      <stop offset="78%" stop-color="#0d1b2a" />
      <stop offset="84%" stop-color="#0d1b2a" />
      <!-- Gap -->
      <stop offset="84%" stop-color="#0d1b2a" stop-opacity="0" />
      <stop offset="86%" stop-color="#0d1b2a" stop-opacity="0" />
      <!-- Dark block 3 -->
      <stop offset="86%" stop-color="#1e3a5f" />
      <stop offset="92%" stop-color="#1e3a5f" />
      <!-- End -->
      <stop offset="92%" stop-color="#000000" stop-opacity="0" />
      <stop offset="100%" stop-color="#000000" stop-opacity="0" />
    </linearGradient>

    <!-- Streak Card Pixel Highlight: similar colors, shifted placement for variety -->
    <linearGradient id="pixelHighlightStreak" x1="0" y1="0" x2="1" y2="1">
      <!-- Pink accent pixel (top-left corner) -->
      <stop offset="0%" stop-color="#ff34e7" />
      <stop offset="4%" stop-color="#ff34e7" />
      <!-- Gap -->
      <stop offset="4%" stop-color="#ff34e7" stop-opacity="0" />
      <stop offset="6%" stop-color="#ff34e7" stop-opacity="0" />
      <!-- Sky Blue Block 1 -->
      <stop offset="6%" stop-color="#5fa0fe" />
      <stop offset="11%" stop-color="#5fa0fe" />
      <!-- Gap -->
      <stop offset="11%" stop-color="#5fa0fe" stop-opacity="0" />
      <stop offset="13%" stop-color="#5fa0fe" stop-opacity="0" />
      <!-- Sky Blue Block 2 -->
      <stop offset="13%" stop-color="#5fa0fe" />
      <stop offset="19%" stop-color="#5fa0fe" />

      <!-- Long transparent gap (middle of border) -->
      <stop offset="19%" stop-color="#000000" stop-opacity="0" />
      <stop offset="68%" stop-color="#000000" stop-opacity="0" />

      <!-- Dark navy block 1 (bottom-right area) -->
      <stop offset="68%" stop-color="#0d1b2a" />
      <stop offset="74%" stop-color="#0d1b2a" />
      <!-- Gap -->
      <stop offset="74%" stop-color="#0d1b2a" stop-opacity="0" />
      <stop offset="76%" stop-color="#0d1b2a" stop-opacity="0" />
      <!-- Dark blue block 2 -->
      <stop offset="76%" stop-color="#1e3a5f" />
      <stop offset="83%" stop-color="#1e3a5f" />
      <!-- Gap -->
      <stop offset="83%" stop-color="#1e3a5f" stop-opacity="0" />
      <stop offset="85%" stop-color="#1e3a5f" stop-opacity="0" />
      <!-- Dark navy block 3 -->
      <stop offset="85%" stop-color="#0d1b2a" />
      <stop offset="90%" stop-color="#0d1b2a" />
      <!-- Gap -->
      <stop offset="90%" stop-color="#0d1b2a" stop-opacity="0" />
      <stop offset="92%" stop-color="#0d1b2a" stop-opacity="0" />
      <!-- Dark block 4 -->
      <stop offset="92%" stop-color="#1e3a5f" />
      <stop offset="96%" stop-color="#1e3a5f" />
      <!-- End -->
      <stop offset="96%" stop-color="#000000" stop-opacity="0" />
      <stop offset="100%" stop-color="#000000" stop-opacity="0" />
    </linearGradient>
    <!-- Left Card Glare Gradient -->
    <linearGradient id="glareGradLeft" x1="0" y1="0" x2="1" y2="1">
      <stop offset="0%" stop-color="#ffffff" stop-opacity="0.12" />
      <stop offset="35%" stop-color="#ffffff" stop-opacity="0.03" />
      <stop offset="100%" stop-color="#ffffff" stop-opacity="0.0" />
    </linearGradient>
    <!-- Right Card Glare Gradient -->
    <linearGradient id="glareGradRight" x1="1" y1="0" x2="0" y2="1">
      <stop offset="0%" stop-color="#ffffff" stop-opacity="0.12" />
      <stop offset="35%" stop-color="#ffffff" stop-opacity="0.03" />
      <stop offset="100%" stop-color="#ffffff" stop-opacity="0.0" />
    </linearGradient>
    <!-- Relative bounding box filter for drop shadow -->
    <filter id="glassShadow" x="-10%" y="-10%" width="120%" height="120%">
      <feGaussianBlur in="SourceAlpha" stdDeviation="4" />
      <feOffset dx="0" dy="3" />
      <feComponentTransfer><feFuncA type="linear" slope="0.18" /></feComponentTransfer>
      <feMerge>
        <feMergeNode />
        <feMergeNode in="SourceGraphic" />
      </feMerge>
    </filter>
  </defs>

  <style>
    .glass-card-left {
      fill: url(#liquidGlassBg);
      stroke: #004498;
      stroke-width: 3;
    }
    .glass-card-right {
      fill: url(#liquidGlassBg);
      stroke: #004498;
      stroke-width: 3;
    }
  </style>
  <g clip-path="url(#bannerClip)">
    <!-- 1. Background GIF -->
    <image href="https://raw.githubusercontent.com/NITHEESH-14/NITHEESH-14/main/assests/gifs/225813708-98b745f2-7d22-48cf-9150-083f1b00d6c9.gif" width="854" height="480" preserveAspectRatio="xMidYMid slice" />
    
    <!-- 2. Dark Overlay Gradient only on the top portion of the GIF -->
    <rect width="854" height="200" fill="url(#overlayGrad)" />

    <!-- Last Updated Timestamp & Custom Pixelated Lightning Bolt (Placed before the word "Last" and aligned to the right edge) -->
    <g transform="translate(595, 20)">
      <path d="M 3 0 H 9 V 3 H 12 V 6 H 9 V 21 H 6 V 18 H 3 V 15 H 6 V 12 H 0 V 9 H 3 V 6 H 6 V 3 H 3 Z" fill="#f1fa8c" stroke="#000000" stroke-width="1.5" stroke-linejoin="round" opacity="0.8" />
      <text x="20" y="15" text-anchor="start" fill="#f8f8f2" stroke="#000000" stroke-width="2.5" paint-order="stroke fill" stroke-linejoin="round" font-family="-apple-system,BlinkMacSystemFont,Segoe UI,Helvetica,Arial,sans-serif" font-size="11" font-weight="600" opacity="0.8">Last Updated: Jun 15, 2026 01:54 PM UTC</text>
    </g>

    <!-- 3. Left Card (Actual Github Stats) -->
    <g filter="url(#glassShadow)">
      <!-- Outer dark blue border + glass background -->
      <path d="M 24 20 H 333 H 336 V 23 H 339 V 26 H 342 V 29 V 155 V 158 H 339 V 161 H 336 V 164 H 24 H 24 H 21 V 161 H 18 V 158 H 15 V 155 V 29 V 26 H 18 V 23 H 21 V 20 H 24 Z" class="glass-card-left" />
      <!-- Solid black bezel/frame inside -->
      <path d="M 24 20 H 333 H 336 V 23 H 339 V 26 H 342 V 29 V 155 V 158 H 339 V 161 H 336 V 164 H 24 H 24 H 21 V 161 H 18 V 158 H 15 V 155 V 29 V 26 H 18 V 23 H 21 V 20 H 24 Z M 30 26 H 327 H 330 V 29 H 333 V 32 H 336 V 35 V 149 V 152 H 333 V 155 H 330 V 158 H 30 H 30 H 27 V 155 H 24 V 152 H 21 V 149 V 35 V 32 H 24 V 29 H 27 V 26 H 30 Z" fill="#000000" fill-rule="evenodd" />
      <!-- Inner pixelated highlight -->
      <path d="M 24 20 H 333 H 336 V 23 H 339 V 26 H 342 V 29 V 155 V 158 H 339 V 161 H 336 V 164 H 24 H 24 H 21 V 161 H 18 V 158 H 15 V 155 V 29 V 26 H 18 V 23 H 21 V 20 H 24 Z" fill="none" stroke="url(#pixelHighlightStats)" stroke-width="1.5" stroke-linejoin="miter" />
      <!-- Glare sweep -->
      <path d="M15 20 L130 20 L70 164 L15 164 Z" fill="url(#glareGradLeft)" clip-path="url(#leftCardClip)" />
    </g>
    <svg x="15" y="22" width="327" height="136.5" viewBox="0 0 467 170" fill="none" xmlns="http://www.w3.org/2000/svg" xmlns:xlink="http://www.w3.org/1999/xlink">
        <title id="titleId">NITHEESH R's GitHub Stats, Rank: C</title>
        <desc id="descId">Total Stars Earned: 1, Total Commits  (last year) : 81, Total PRs: 0, Contributed to (last year): 1</desc>
        <style>
          .header {
            font: 600 20px 'Segoe UI', Ubuntu, Sans-Serif;
            fill: #ff6e96; stroke: #000000; stroke-width: 3.5px; paint-order: stroke fill; stroke-linejoin: round;
            animation: fadeInAnimation 0.8s ease-in-out forwards;
          }
          @supports(-moz-appearance: auto) {
            /* Selector detects Firefox */
            .header { font-size: 15.5px; }
          }
          
    .stat {
      font: 600 16px 'Segoe UI', Ubuntu, "Helvetica Neue", Sans-Serif; fill: #f8f8f2; stroke: #000000; stroke-width: 3px; paint-order: stroke fill; stroke-linejoin: round;
    }
    @supports(-moz-appearance: auto) {
      /* Selector detects Firefox */
      .stat { font-size:12px; }
    }
    .stagger {
      opacity: 1;
      animation: fadeInAnimation 0.3s ease-in-out forwards;
    }
    .rank-text {
      font: 800 24px 'Segoe UI', Ubuntu, Sans-Serif; fill: #f8f8f2; stroke: #000000; stroke-width: 3px; paint-order: stroke fill; stroke-linejoin: round;
      animation: scaleInAnimation 0.3s ease-in-out forwards;
    }
    .rank-percentile-header {
      font-size: 14px;
    }
    .rank-percentile-text {
      font-size: 16px;
    }
    
    .not_bold { font-weight: 400 }
    .bold { font-weight: 700 }
    .icon {
      fill: #79dafa;
      display: block;
    }

    .rank-circle-rim {
      stroke: #ff6e96;
      fill: none;
      stroke-width: 6;
      opacity: 0.2;
    }
    .rank-circle {
      stroke: #ff6e96;
      stroke-dasharray: 250;
      fill: none;
      stroke-width: 6;
      stroke-linecap: round;
      opacity: 0.8;
      transform-origin: -10px 8px;
      transform: rotate(-90deg);
      animation: rankAnimation 1s forwards ease-in-out;
    }
    
    @keyframes rankAnimation {
      from {
        stroke-dashoffset: 251.32741228718345;
      }
      to {
        stroke-dashoffset: 232.0623849653557;
      }
    }
  
  

          
      /* Animations */
      @keyframes scaleInAnimation {
        from {
          transform: translate(-5px, 5px) scale(0);
        }
        to {
          transform: translate(-5px, 5px) scale(1);
        }
      }
      @keyframes fadeInAnimation {
        from {
          opacity: 1;
        }
        to {
          opacity: 1;
        }
      }
    
          
        </style>

        

        <rect
          data-testid="card-bg"
          x="0.5"
          y="0.5"
          rx="4.5"
          height="99%"
          stroke="#e4e2e2"
          width="466"
          fill="#00000000"
          stroke-opacity="0"
        />

        
      <g
        data-testid="card-title"
        transform="translate(25, 35)"
      >
        <g transform="translate(0, 0)">
      <text
        x="0"
        y="0"
        class="header"
        data-testid="header"
      >NITHEESH R's GitHub Stats</text>
    </g>
      </g>
    

        <g
          data-testid="main-card-body"
          transform="translate(0, 55)"
        >
          
    <g data-testid="rank-circle"
          transform="translate(390.5, 35)">
        <circle class="rank-circle-rim" cx="-10" cy="8" r="40" />
        <circle class="rank-circle" cx="-10" cy="8" r="40" />
        <g class="rank-text">
          
        <svg x="-38" y="-30" height="66" width="66" aria-hidden="true" viewBox="0 0 16 16" version="1.1" data-view-component="true" data-testid="github-rank-icon">
          <path d="M8 0c4.42 0 8 3.58 8 8a8.013 8.013 0 0 1-5.45 7.59c-.4.08-.55-.17-.55-.38 0-.27.01-1.13.01-2.2 0-.75-.25-1.23-.54-1.48 1.78-.2 3.65-.88 3.65-3.95 0-.88-.31-1.59-.82-2.15.08-.2.36-1.02-.08-2.12 0 0-.67-.22-2.2.82-.64-.18-1.32-.27-2-.27-.68 0-1.36.09-2 .27-1.53-1.03-2.2-.82-2.2-.82-.44 1.1-.16 1.92-.08 2.12-.51.56-.82 1.28-.82 2.15 0 3.06 1.86 3.75 3.64 3.95-.23.2-.44.55-.51 1.07-.46.21-1.61.55-2.33-.66-.15-.24-.6-.83-1.23-.82-.67.01-.27.38.01.53.34.19.73.9.82 1.13.16.45.68 1.31 2.69.94 0 .67.01 1.3.01 1.49 0 .21-.15.45-.55.38A7.995 7.995 0 0 1 0 8c0-4.42 3.58-8 8-8Z"></path>
        </svg>
      
        </g>
      </g>
    <svg x="0" y="0">
      <g transform="translate(0, 0)">
    <g class="stagger" style="animation-delay: 450ms" transform="translate(25, 0)">
      
    <svg data-testid="icon" class="icon" viewBox="0 0 16 16" version="1.1" width="16" height="16">
      <path fill-rule="evenodd" d="M8 .25a.75.75 0 01.673.418l1.882 3.815 4.21.612a.75.75 0 01.416 1.279l-3.046 2.97.719 4.192a.75.75 0 01-1.088.791L8 12.347l-3.766 1.98a.75.75 0 01-1.088-.79l.72-4.194L.818 6.374a.75.75 0 01.416-1.28l4.21-.611L7.327.668A.75.75 0 018 .25zm0 2.445L6.615 5.5a.75.75 0 01-.564.41l-3.097.45 2.24 2.184a.75.75 0 01.216.664l-.528 3.084 2.769-1.456a.75.75 0 01.698 0l2.77 1.456-.53-3.084a.75.75 0 01.216-.664l2.24-2.183-3.096-.45a.75.75 0 01-.564-.41L8 2.694v.001z"/>
    </svg>
  
      <text class="stat not_bold" x="25" y="12.5">Total Stars Earned:</text>
      <text
        class="stat not_bold"
        x="219.01"
        y="12.5"
        data-testid="stars"
      >1</text>
    </g>
  </g><g transform="translate(0, 25)">
    <g class="stagger" style="animation-delay: 600ms" transform="translate(25, 0)">
      
    <svg data-testid="icon" class="icon" viewBox="0 0 16 16" version="1.1" width="16" height="16">
      <path fill-rule="evenodd" d="M1.643 3.143L.427 1.927A.25.25 0 000 2.104V5.75c0 .138.112.25.25.25h3.646a.25.25 0 00.177-.427L2.715 4.215a6.5 6.5 0 11-1.18 4.458.75.75 0 10-1.493.154 8.001 8.001 0 101.6-5.684zM7.75 4a.75.75 0 01.75.75v2.992l2.028.812a.75.75 0 01-.557 1.392l-2.5-1A.75.75 0 017 8.25v-3.5A.75.75 0 017.75 4z"/>
    </svg>
  
      <text class="stat not_bold" x="25" y="12.5">Total Commits (last year):</text>
      <text
        class="stat not_bold"
        x="219.01"
        y="12.5"
        data-testid="commits"
      >81</text>
    </g>
  </g><g transform="translate(0, 50)">
    <g class="stagger" style="animation-delay: 750ms" transform="translate(25, 0)">
      
    <svg data-testid="icon" class="icon" viewBox="0 0 16 16" version="1.1" width="16" height="16">
      <path fill-rule="evenodd" d="M7.177 3.073L9.573.677A.25.25 0 0110 .854v4.792a.25.25 0 01-.427.177L7.177 3.427a.25.25 0 010-.354zM3.75 2.5a.75.75 0 100 1.5.75.75 0 000-1.5zm-2.25.75a2.25 2.25 0 113 2.122v5.256a2.251 2.251 0 11-1.5 0V5.372A2.25 2.25 0 011.5 3.25zM11 2.5h-1V4h1a1 1 0 011 1v5.628a2.251 2.251 0 101.5 0V5A2.5 2.5 0 0011 2.5zm1 10.25a.75.75 0 111.5 0 .75.75 0 01-1.5 0zM3.75 12a.75.75 0 100 1.5.75.75 0 000-1.5z"/>
    </svg>
  
      <text class="stat not_bold" x="25" y="12.5">Total PRs:</text>
      <text
        class="stat not_bold"
        x="219.01"
        y="12.5"
        data-testid="prs"
      >0</text>
    </g>
  </g><g transform="translate(0, 75)">
    <g class="stagger" style="animation-delay: 900ms" transform="translate(25, 0)">
      
    <svg data-testid="icon" class="icon" viewBox="0 0 16 16" version="1.1" width="16" height="16">
      <path fill-rule="evenodd" d="M2 2.5A2.5 2.5 0 014.5 0h8.75a.75.75 0 01.75.75v12.5a.75.75 0 01-.75.75h-2.5a.75.75 0 110-1.5h1.75v-2h-8a1 1 0 00-.714 1.7.75.75 0 01-1.072 1.05A2.495 2.495 0 012 11.5v-9zm10.5-1V9h-8c-.356 0-.694.074-1 .208V2.5a1 1 0 011-1h8zM5 12.25v3.25a.25.25 0 00.4.2l1.45-1.087a.25.25 0 01.3 0L8.6 15.7a.25.25 0 00.4-.2v-3.25a.25.25 0 00-.25-.25h-3.5a.25.25 0 00-.25.25z"/>
    </svg>
  
      <text class="stat not_bold" x="25" y="12.5">Contributed to (last year):</text>
      <text
        class="stat not_bold"
        x="219.01"
        y="12.5"
        data-testid="contribs"
      >1</text>
    </g>
  </g>
    </svg>
  
        </g>
      </svg>
    

    <!-- 4. Right Card (Actual Streak Stats) -->
    <g filter="url(#glassShadow)">
      <!-- Outer dark blue border + glass background -->
      <path d="M 501 65 H 830 H 833 V 68 H 836 V 71 H 839 V 74 V 200 V 203 H 836 V 206 H 833 V 209 H 501 H 501 H 498 V 206 H 495 V 203 H 492 V 200 V 74 V 71 H 495 V 68 H 498 V 65 H 501 Z" class="glass-card-right" />
      <!-- Solid black bezel/frame inside -->
      <path d="M 501 65 H 830 H 833 V 68 H 836 V 71 H 839 V 74 V 200 V 203 H 836 V 206 H 833 V 209 H 501 H 501 H 498 V 206 H 495 V 203 H 492 V 200 V 74 V 71 H 495 V 68 H 498 V 65 H 501 Z M 507 71 H 824 H 827 V 74 H 830 V 77 H 833 V 80 V 194 V 197 H 830 V 200 H 827 V 203 H 507 H 507 H 504 V 200 H 501 V 197 H 498 V 194 V 80 V 77 H 501 V 74 H 504 V 71 H 507 Z" fill="#000000" fill-rule="evenodd" />
      <!-- Inner pixelated highlight -->
      <path d="M 501 65 H 830 H 833 V 68 H 836 V 71 H 839 V 74 V 200 V 203 H 836 V 206 H 833 V 209 H 501 H 501 H 498 V 206 H 495 V 203 H 492 V 200 V 74 V 71 H 495 V 68 H 498 V 65 H 501 Z" fill="none" stroke="url(#pixelHighlightStreak)" stroke-width="1.5" stroke-linejoin="miter" />
      <!-- Glare sweep -->
      <path d="M839 65 L724 65 L784 209 L839 209 Z" fill="url(#glareGradRight)" clip-path="url(#rightCardClip)" />
    </g>
    <svg x="492" y="67" width="346.5" height="136.5" viewBox="0 0 495 195" fill="none" xmlns="http://www.w3.org/2000/svg" xmlns:xlink="http://www.w3.org/1999/xlink">
        <style>
            @keyframes currstreak {
                0% { font-size: 3px; opacity: 0.2; }
                80% { font-size: 40px; opacity: 1; }
                100% { font-size: 34px; opacity: 1; }
            }
            @keyframes fadein {
                0% { opacity: 1; }
                100% { opacity: 1; }
            }
        </style>
        <defs>
            <clipPath id='outer_rectangle'>
                <rect width='495' height='195' rx='0' fill='none'/>
            </clipPath>
            <mask id='mask_out_ring_behind_fire'>
                <rect width='495' height='195' fill='white'/>
                <ellipse id='mask-ellipse' cx='247.5' cy='32' rx='13' ry='18' fill='black'/>
            </mask>
            
        </defs>
        <g clip-path='url(#outer_rectangle)'>
            <g style='isolation: isolate'>
                <rect stroke='#000000' stroke-opacity='0' fill='#ffffff' fill-opacity='0' rx='0' x='0.5' y='0.5' width='494' height='194'/>
            </g>
            <g style='isolation: isolate'>
                <line x1='165' y1='28' x2='165' y2='170' vector-effect='non-scaling-stroke' stroke-width='1' stroke='#E4E2E2' stroke-linejoin='miter' stroke-linecap='square' stroke-miterlimit='3'/>
                <line x1='330' y1='28' x2='330' y2='170' vector-effect='non-scaling-stroke' stroke-width='1' stroke='#E4E2E2' stroke-linejoin='miter' stroke-linecap='square' stroke-miterlimit='3'/>
            </g>
            <g style='isolation: isolate'>
                <!-- Total Contributions big number -->
                <g transform='translate(82.5, 48)'>
                    <text x='0' y='32' stroke-width='3.5px' paint-order='stroke fill' stroke-linejoin='round' text-anchor='middle' fill='#FF6E96' stroke='#000000' font-family='"Segoe UI", Ubuntu, sans-serif' font-weight='700' font-size='34px' font-style='normal' style='opacity: 1; animation: fadein 0.5s linear forwards 0.6s'>
                        175
                    </text>
                </g>

                <!-- Total Contributions label -->
                <g transform='translate(82.5, 84)'>
                    <text x='0' y='32' stroke-width='3.5px' paint-order='stroke fill' stroke-linejoin='round' text-anchor='middle' fill='#FF6E96' stroke='#000000' font-family='"Segoe UI", Ubuntu, sans-serif' font-weight='400' font-size='16.5px' font-style='normal' style='opacity: 1; animation: fadein 0.5s linear forwards 0.7s'>
                        Total Contributions
                    </text>
                </g>

                <!-- Total Contributions range -->
                <g transform='translate(82.5, 114)'>
                    <text x='0' y='32' stroke-width='3.5px' paint-order='stroke fill' stroke-linejoin='round' text-anchor='middle' fill='#F8F8F2' stroke='#000000' font-family='"Segoe UI", Ubuntu, sans-serif' font-weight='400' font-size='13.5px' font-style='normal' style='opacity: 1; animation: fadein 0.5s linear forwards 0.8s'>
                        Dec 9, 2024 - Present
                    </text>
                </g>
            </g>
            <g style='isolation: isolate'>
                <!-- Current Streak big number -->
                <g transform='translate(247.5, 48)'>
                    <text x='0' y='32' stroke-width='3.5px' paint-order='stroke fill' stroke-linejoin='round' text-anchor='middle' fill='#79DAFA' stroke='#000000' font-family='"Segoe UI", Ubuntu, sans-serif' font-weight='700' font-size='34px' font-style='normal' style='animation: currstreak 0.6s linear forwards'>
                        11
                    </text>
                </g>

                <!-- Current Streak label -->
                <g transform='translate(247.5, 108)'>
                    <text x='0' y='32' stroke-width='3.5px' paint-order='stroke fill' stroke-linejoin='round' text-anchor='middle' fill='#79DAFA' stroke='#000000' font-family='"Segoe UI", Ubuntu, sans-serif' font-weight='700' font-size='16.5px' font-style='normal' style='opacity: 1; animation: fadein 0.5s linear forwards 0.9s'>
                        Current Streak
                    </text>
                </g>

                <!-- Current Streak range -->
                <g transform='translate(247.5, 145)'>
                    <text x='0' y='21' stroke-width='3.5px' paint-order='stroke fill' stroke-linejoin='round' text-anchor='middle' fill='#F8F8F2' stroke='#000000' font-family='"Segoe UI", Ubuntu, sans-serif' font-weight='400' font-size='13.5px' font-style='normal' style='opacity: 1; animation: fadein 0.5s linear forwards 0.9s'>
                        Jun 5 - Jun 15
                    </text>
                </g>

                <!-- Ring around number -->
                <g mask='url(#mask_out_ring_behind_fire)'>
                    <circle cx='247.5' cy='71' r='40' fill='none' stroke='#FF6E96' stroke-width='5' style='opacity: 1; animation: fadein 0.5s linear forwards 0.4s'></circle>
                </g>
                <!-- Fire icon -->
                <g transform='translate(247.5, 19.5)' stroke-opacity='0' style='opacity: 1; animation: fadein 0.5s linear forwards 0.6s'>
                    <path d='M -12 -0.5 L 15 -0.5 L 15 23.5 L -12 23.5 L -12 -0.5 Z' fill='none'/>
                    <path d='M 1.5 0.67 C 1.5 0.67 2.24 3.32 2.24 5.47 C 2.24 7.53 0.89 9.2 -1.17 9.2 C -3.23 9.2 -4.79 7.53 -4.79 5.47 L -4.76 5.11 C -6.78 7.51 -8 10.62 -8 13.99 C -8 18.41 -4.42 22 0 22 C 4.42 22 8 18.41 8 13.99 C 8 8.6 5.41 3.79 1.5 0.67 Z M -0.29 19 C -2.07 19 -3.51 17.6 -3.51 15.86 C -3.51 14.24 -2.46 13.1 -0.7 12.74 C 1.07 12.38 2.9 11.53 3.92 10.16 C 4.31 11.45 4.51 12.81 4.51 14.2 C 4.51 16.85 2.36 19 -0.29 19 Z' fill='#FF6E96' stroke-opacity='0'/>
                </g>

            </g>
            <g style='isolation: isolate'>
                <!-- Longest Streak big number -->
                <g transform='translate(412.5, 48)'>
                    <text x='0' y='32' stroke-width='3.5px' paint-order='stroke fill' stroke-linejoin='round' text-anchor='middle' fill='#FF6E96' stroke='#000000' font-family='"Segoe UI", Ubuntu, sans-serif' font-weight='700' font-size='34px' font-style='normal' style='opacity: 1; animation: fadein 0.5s linear forwards 1.2s'>
                        11
                    </text>
                </g>

                <!-- Longest Streak label -->
                <g transform='translate(412.5, 84)'>
                    <text x='0' y='32' stroke-width='3.5px' paint-order='stroke fill' stroke-linejoin='round' text-anchor='middle' fill='#FF6E96' stroke='#000000' font-family='"Segoe UI", Ubuntu, sans-serif' font-weight='400' font-size='16.5px' font-style='normal' style='opacity: 1; animation: fadein 0.5s linear forwards 1.3s'>
                        Longest Streak
                    </text>
                </g>

                <!-- Longest Streak range -->
                <g transform='translate(412.5, 114)'>
                    <text x='0' y='32' stroke-width='3.5px' paint-order='stroke fill' stroke-linejoin='round' text-anchor='middle' fill='#F8F8F2' stroke='#000000' font-family='"Segoe UI", Ubuntu, sans-serif' font-weight='400' font-size='13.5px' font-style='normal' style='opacity: 1; animation: fadein 0.5s linear forwards 1.4s'>
                        Jun 5 - Jun 15
                    </text>
                </g>
            </g>
            
        </g>
    </svg>

  </g>
</svg>